<mxfile host="Electron" modified="2023-08-03T06:49:02.658Z" agent="Mozilla/5.0 (X11; Linux x86_64) AppleWebKit/537.36 (KHTML, like Gecko) draw.io/21.6.5 Chrome/114.0.5735.243 Electron/25.3.1 Safari/537.36" etag="6l8pyt1osoOOyk7FqRuj" version="21.6.5" type="device">
  <diagram name="Page-1" id="NfH2ZwUkQwFfbgMINxhX">
    <mxGraphModel dx="1728" dy="1056" grid="1" gridSize="10" guides="1" tooltips="1" connect="1" arrows="1" fold="1" page="1" pageScale="1" pageWidth="850" pageHeight="1100" math="0" shadow="0">
      <root>
        <mxCell id="0" />
        <mxCell id="1" parent="0" />
        <mxCell id="7y92a02ngbitGbo6q8Mo-4" value="" style="group;fontSize=21;" vertex="1" connectable="0" parent="1">
          <mxGeometry x="170" y="380" width="660" height="410" as="geometry" />
        </mxCell>
        <mxCell id="7y92a02ngbitGbo6q8Mo-1" value="Aplication" style="ellipse;whiteSpace=wrap;html=1;aspect=fixed;fillColor=#fff2cc;strokeColor=#d6b656;opacity=80;fontSize=21;" vertex="1" parent="7y92a02ngbitGbo6q8Mo-4">
          <mxGeometry width="357.052062204192" height="357.052062204192" as="geometry" />
        </mxCell>
        <mxCell id="7y92a02ngbitGbo6q8Mo-2" value="Architecture" style="ellipse;whiteSpace=wrap;html=1;aspect=fixed;fillColor=#f8cecc;strokeColor=#b85450;opacity=60;fontSize=21;" vertex="1" parent="7y92a02ngbitGbo6q8Mo-4">
          <mxGeometry x="297.64705882352945" width="357.052062204192" height="357.052062204192" as="geometry" />
        </mxCell>
        <mxCell id="7y92a02ngbitGbo6q8Mo-3" value="us" style="text;html=1;strokeColor=none;fillColor=none;align=center;verticalAlign=middle;whiteSpace=wrap;rounded=0;fontSize=21;" vertex="1" parent="7y92a02ngbitGbo6q8Mo-4">
          <mxGeometry x="252.35012787723784" y="134.59108374384238" width="155.2941176470588" height="87.85714285714286" as="geometry" />
        </mxCell>
      </root>
    </mxGraphModel>
  </diagram>
</mxfile>
